ffmpeg started on 2025-06-21 at 12:39:38
Report written to "D:\Convert\FFMetrics\reports\ssim_report-6.txt"
Log level: 32
Command line:
ffmpeg -hide_banner -nostdin -i "G:\\\xc0\xed\xe8\xec\xe5\\[\xd2\xee\xef-4]\\\xc4\xe5\xf0\xe6\xe0\xf1\xfc \xc7\xe0 \xd0\xf3\xea\xe8\\Hand_Shakers_[08]_[AniLibria.TV]_[HDTV-Rip_720p]_HEVC.mkv" -i "G:\\\xc0\xed\xe8\xec\xe5\\[\xd2\xee\xef-4]\\\xc4\xe5\xf0\xe6\xe0\xf1\xfc \xc7\xe0 \xd0\xf3\xea\xe8\\Hand_Shakers_[08]_[AniLibria.TV]_[HDTV-Rip_720p].mkv" -lavfi "[0:v]settb=AVTB,setpts=PTS-STARTPTS,format=pix_fmts=yuv420p10,fps=30000/1001,scale=1280:720:flags=bicubic[main];[1:v]settb=AVTB,setpts=PTS-STARTPTS,format=pix_fmts=yuv420p,fps=30000/1001,scale=1280:720:flags=bicubic[ref];[main][ref]ssim=eof_action=endall:stats_file='D\\:/Convert/FFMetrics/logs/ssim_logfile-6.txt'" -f null -
Input #0, matroska,webm, from 'G:\Аниме\[Топ-4]\Держась За Руки\Hand_Shakers_[08]_[AniLibria.TV]_[HDTV-Rip_720p]_HEVC.mkv':
  Metadata:
    ENCODER         : Lavf61.7.100
  Duration: 00:23:59.91, start: -0.021000, bitrate: 2173 kb/s
  Stream #0:0(jpn): Video: hevc (Main 10), yuv420p10le(tv, bt709, progressive), 1280x720 [SAR 1:1 DAR 16:9], 29.97 fps, 29.97 tbr, 1k tbn (default)
      Metadata:
        ENCODER         : Lavc61.19.100 libx265
        BPS             : 1974857
        DURATION        : 00:23:59.771366664
        NUMBER_OF_FRAMES: 43150
        NUMBER_OF_BYTES : 355417869
        _STATISTICS_WRITING_APP: mkvpropedit v66.0.0 ('Josie') 64-bit
        _STATISTICS_WRITING_DATE_UTC: 2025-06-20 16:57:59
        _STATISTICS_TAGS: BPS DURATION NUMBER_OF_FRAMES NUMBER_OF_BYTES
  Stream #0:1(rus): Audio: aac (LC), 48000 Hz, stereo, fltp (default) (forced)
      Metadata:
        title           : Амикири и Анзен
        ENCODER         : Lavc61.19.100 aac
        BPS             : 193763
        DURATION        : 00:23:59.893000000
        NUMBER_OF_FRAMES: 67496
        NUMBER_OF_BYTES : 34874928
        _STATISTICS_WRITING_APP: mkvpropedit v66.0.0 ('Josie') 64-bit
        _STATISTICS_WRITING_DATE_UTC: 2025-06-20 16:57:59
        _STATISTICS_TAGS: BPS DURATION NUMBER_OF_FRAMES NUMBER_OF_BYTES
  Stream #0:2(rus): Subtitle: ass (ssa) (default) (forced)
      Metadata:
        title           : Надписи
        BPS             : 26
        DURATION        : 00:23:45.670000000
        NUMBER_OF_FRAMES: 33
        NUMBER_OF_BYTES : 4645
        _STATISTICS_WRITING_APP: mkvpropedit v66.0.0 ('Josie') 64-bit
        _STATISTICS_WRITING_DATE_UTC: 2025-06-20 16:57:59
        _STATISTICS_TAGS: BPS DURATION NUMBER_OF_FRAMES NUMBER_OF_BYTES
  Stream #0:3(rus): Subtitle: ass (ssa)
      Metadata:
        title           : Субтитры
        BPS             : 155
        DURATION        : 00:23:49.090000000
        NUMBER_OF_FRAMES: 353
        NUMBER_OF_BYTES : 27741
        _STATISTICS_WRITING_APP: mkvpropedit v66.0.0 ('Josie') 64-bit
        _STATISTICS_WRITING_DATE_UTC: 2025-06-20 16:57:59
        _STATISTICS_TAGS: BPS DURATION NUMBER_OF_FRAMES NUMBER_OF_BYTES
Input #1, matroska,webm, from 'G:\Аниме\[Топ-4]\Держась За Руки\Hand_Shakers_[08]_[AniLibria.TV]_[HDTV-Rip_720p].mkv':
  Metadata:
    encoder         : libebml v1.4.2 + libmatroska v1.6.4
    creation_time   : 2024-12-27T17:07:05.000000Z
  Duration: 00:23:59.89, start: 0.000000, bitrate: 4919 kb/s
  Stream #1:0(jpn): Video: h264 (High), yuv420p(tv, bt709, progressive), 1280x720 [SAR 1:1 DAR 16:9], 29.97 fps, 29.97 tbr, 1k tbn (default)
      Metadata:
        BPS             : 4724108
        DURATION        : 00:23:59.771000000
        NUMBER_OF_FRAMES: 43150
        NUMBER_OF_BYTES : 850204291
        _STATISTICS_WRITING_APP: mkvmerge v66.0.0 ('Josie') 64-bit
        _STATISTICS_WRITING_DATE_UTC: 2024-12-27 17:07:05
        _STATISTICS_TAGS: BPS DURATION NUMBER_OF_FRAMES NUMBER_OF_BYTES
  Stream #1:1(rus): Audio: aac (LC), 48000 Hz, stereo, fltp (default) (forced)
      Metadata:
        title           : Амикири и Анзен
        BPS             : 189375
        DURATION        : 00:23:59.893000000
        NUMBER_OF_FRAMES: 67495
        NUMBER_OF_BYTES : 34084975
        _STATISTICS_WRITING_APP: mkvmerge v66.0.0 ('Josie') 64-bit
        _STATISTICS_WRITING_DATE_UTC: 2024-12-27 17:07:05
        _STATISTICS_TAGS: BPS DURATION NUMBER_OF_FRAMES NUMBER_OF_BYTES
  Stream #1:2(rus): Subtitle: ass (ssa) (default) (forced)
      Metadata:
        title           : Надписи
        BPS             : 26
        DURATION        : 00:23:45.670000000
        NUMBER_OF_FRAMES: 33
        NUMBER_OF_BYTES : 4645
        _STATISTICS_WRITING_APP: mkvmerge v66.0.0 ('Josie') 64-bit
        _STATISTICS_WRITING_DATE_UTC: 2024-12-27 17:07:05
        _STATISTICS_TAGS: BPS DURATION NUMBER_OF_FRAMES NUMBER_OF_BYTES
  Stream #1:3(rus): Subtitle: ass (ssa)
      Metadata:
        title           : Субтитры
        BPS             : 155
        DURATION        : 00:23:49.090000000
        NUMBER_OF_FRAMES: 353
        NUMBER_OF_BYTES : 27741
        _STATISTICS_WRITING_APP: mkvmerge v66.0.0 ('Josie') 64-bit
        _STATISTICS_WRITING_DATE_UTC: 2024-12-27 17:07:05
        _STATISTICS_TAGS: BPS DURATION NUMBER_OF_FRAMES NUMBER_OF_BYTES
  Stream #1:4: Attachment: ttf
      Metadata:
        filename        : 10423.ttf
        mimetype        : application/x-truetype-font
  Stream #1:5: Attachment: ttf
      Metadata:
        filename        : 10436.ttf
        mimetype        : application/x-truetype-font
  Stream #1:6: Attachment: ttf
      Metadata:
        filename        : 8651.ttf
        mimetype        : application/x-truetype-font
  Stream #1:7: Attachment: ttf
      Metadata:
        filename        : 10213.ttf
        mimetype        : application/x-truetype-font
  Stream #1:8: Attachment: ttf
      Metadata:
        filename        : 10322.ttf
        mimetype        : application/x-truetype-font
  Stream #1:9: Attachment: ttf
      Metadata:
        filename        : 10351.ttf
        mimetype        : application/x-truetype-font
Stream mapping:
  Stream #0:0 (hevc) -> settb:default
  Stream #1:0 (h264) -> settb:default
  ssim:default -> Stream #0:0 (wrapped_avframe)
  Stream #0:1 -> #0:1 (aac (native) -> pcm_s16le (native))
Output #0, null, to 'pipe:':
  Metadata:
    encoder         : Lavf61.7.100
  Stream #0:0: Video: wrapped_avframe, yuv420p10le(tv, bt709, progressive), 1280x720 [SAR 1:1 DAR 16:9], q=2-31, 200 kb/s, 29.97 fps, 29.97 tbn
      Metadata:
        encoder         : Lavc61.19.100 wrapped_avframe
  Stream #0:1(rus): Audio: pcm_s16le, 48000 Hz, stereo, s16, 1536 kb/s (default) (forced)
      Metadata:
        title           : Амикири и Анзен
        _STATISTICS_TAGS: BPS DURATION NUMBER_OF_FRAMES NUMBER_OF_BYTES
        BPS             : 193763
        DURATION        : 00:23:59.893000000
        NUMBER_OF_FRAMES: 67496
        NUMBER_OF_BYTES : 34874928
        _STATISTICS_WRITING_APP: mkvpropedit v66.0.0 ('Josie') 64-bit
        _STATISTICS_WRITING_DATE_UTC: 2025-06-20 16:57:59
        encoder         : Lavc61.19.100 pcm_s16le
frame=  321 fps=0.0 q=-0.0 size=N/A time=00:00:10.71 bitrate=N/A speed=20.5x    frame=  626 fps=601 q=-0.0 size=N/A time=00:00:20.88 bitrate=N/A speed=20.1x    frame=  966 fps=620 q=-0.0 size=N/A time=00:00:32.23 bitrate=N/A speed=20.7x    frame= 1258 fps=607 q=-0.0 size=N/A time=00:00:41.97 bitrate=N/A speed=20.2x    frame= 1552 fps=599 q=-0.0 size=N/A time=00:00:51.78 bitrate=N/A speed=  20x    frame= 1874 fps=602 q=-0.0 size=N/A time=00:01:02.52 bitrate=N/A speed=20.1x    frame= 2260 fps=622 q=-0.0 size=N/A time=00:01:15.40 bitrate=N/A speed=20.8x    frame= 2703 fps=652 q=-0.0 size=N/A time=00:01:30.19 bitrate=N/A speed=21.8x    frame= 3205 fps=688 q=-0.0 size=N/A time=00:01:46.94 bitrate=N/A speed=22.9x    frame= 3669 fps=709 q=-0.0 size=N/A time=00:02:02.42 bitrate=N/A speed=23.7x    frame= 4092 fps=720 q=-0.0 size=N/A time=00:02:16.53 bitrate=N/A speed=  24x    frame= 4444 fps=717 q=-0.0 size=N/A time=00:02:28.28 bitrate=N/A speed=23.9x    frame= 4701 fps=700 q=-0.0 size=N/A time=00:02:36.85 bitrate=N/A speed=23.3x    frame= 4964 fps=686 q=-0.0 size=N/A time=00:02:45.63 bitrate=N/A speed=22.9x    frame= 5201 fps=671 q=-0.0 size=N/A time=00:02:53.54 bitrate=N/A speed=22.4x    frame= 5461 fps=661 q=-0.0 size=N/A time=00:03:02.21 bitrate=N/A speed=  22x    frame= 5711 fps=651 q=-0.0 size=N/A time=00:03:10.55 bitrate=N/A speed=21.7x    frame= 5948 fps=640 q=-0.0 size=N/A time=00:03:18.46 bitrate=N/A speed=21.4x    frame= 6157 fps=628 q=-0.0 size=N/A time=00:03:25.43 bitrate=N/A speed=20.9x    frame= 6384 fps=618 q=-0.0 size=N/A time=00:03:33.01 bitrate=N/A speed=20.6x    frame= 6605 fps=609 q=-0.0 size=N/A time=00:03:40.38 bitrate=N/A speed=20.3x    frame= 6875 fps=605 q=-0.0 size=N/A time=00:03:49.39 bitrate=N/A speed=20.2x    frame= 7109 fps=599 q=-0.0 size=N/A time=00:03:57.20 bitrate=N/A speed=  20x    frame= 7579 fps=611 q=-0.0 size=N/A time=00:04:12.88 bitrate=N/A speed=20.4x    frame= 7889 fps=611 q=-0.0 size=N/A time=00:04:23.22 bitrate=N/A speed=20.4x    frame= 8208 fps=611 q=-0.0 size=N/A time=00:04:33.87 bitrate=N/A speed=20.4x    frame= 8525 fps=612 q=-0.0 size=N/A time=00:04:44.45 bitrate=N/A speed=20.4x    frame= 9041 fps=626 q=-0.0 size=N/A time=00:05:01.66 bitrate=N/A speed=20.9x    frame= 9303 fps=622 q=-0.0 size=N/A time=00:05:10.41 bitrate=N/A speed=20.7x    frame= 9771 fps=631 q=-0.0 size=N/A time=00:05:26.02 bitrate=N/A speed=21.1x    frame=10267 fps=642 q=-0.0 size=N/A time=00:05:42.57 bitrate=N/A speed=21.4x    frame=10744 fps=651 q=-0.0 size=N/A time=00:05:58.49 bitrate=N/A speed=21.7x    frame=11228 fps=659 q=-0.0 size=N/A time=00:06:14.64 bitrate=N/A speed=  22x    frame=11645 fps=663 q=-0.0 size=N/A time=00:06:28.55 bitrate=N/A speed=22.1x    frame=12170 fps=673 q=-0.0 size=N/A time=00:06:46.07 bitrate=N/A speed=22.5x    frame=12669 fps=682 q=-0.0 size=N/A time=00:07:02.72 bitrate=N/A speed=22.8x    frame=12956 fps=679 q=-0.0 size=N/A time=00:07:12.29 bitrate=N/A speed=22.6x    frame=13246 fps=676 q=-0.0 size=N/A time=00:07:21.97 bitrate=N/A speed=22.5x    frame=13677 fps=680 q=-0.0 size=N/A time=00:07:36.35 bitrate=N/A speed=22.7x    frame=14201 fps=688 q=-0.0 size=N/A time=00:07:53.84 bitrate=N/A speed=  23x    frame=14713 fps=695 q=-0.0 size=N/A time=00:08:10.92 bitrate=N/A speed=23.2x    frame=15201 fps=701 q=-0.0 size=N/A time=00:08:27.20 bitrate=N/A speed=23.4x    frame=15666 fps=706 q=-0.0 size=N/A time=00:08:42.72 bitrate=N/A speed=23.6x    frame=16084 fps=708 q=-0.0 size=N/A time=00:08:56.66 bitrate=N/A speed=23.6x    frame=16507 fps=711 q=-0.0 size=N/A time=00:09:10.78 bitrate=N/A speed=23.7x    frame=16777 fps=707 q=-0.0 size=N/A time=00:09:19.79 bitrate=N/A speed=23.6x    frame=17162 fps=708 q=-0.0 size=N/A time=00:09:32.63 bitrate=N/A speed=23.6x    frame=17468 fps=705 q=-0.0 size=N/A time=00:09:42.84 bitrate=N/A speed=23.5x    frame=17745 fps=702 q=-0.0 size=N/A time=00:09:52.09 bitrate=N/A speed=23.4x    frame=18033 fps=699 q=-0.0 size=N/A time=00:10:01.70 bitrate=N/A speed=23.3x    frame=18290 fps=695 q=-0.0 size=N/A time=00:10:10.27 bitrate=N/A speed=23.2x    frame=18683 fps=696 q=-0.0 size=N/A time=00:10:23.38 bitrate=N/A speed=23.2x    frame=19076 fps=698 q=-0.0 size=N/A time=00:10:36.50 bitrate=N/A speed=23.3x    frame=19516 fps=701 q=-0.0 size=N/A time=00:10:51.18 bitrate=N/A speed=23.4x    frame=19870 fps=700 q=-0.0 size=N/A time=00:11:02.99 bitrate=N/A speed=23.4x    frame=20197 fps=699 q=-0.0 size=N/A time=00:11:13.90 bitrate=N/A speed=23.3x    frame=20436 fps=695 q=-0.0 size=N/A time=00:11:21.88 bitrate=N/A speed=23.2x    frame=20657 fps=691 q=-0.0 size=N/A time=00:11:29.25 bitrate=N/A speed=  23x    frame=20880 fps=686 q=-0.0 size=N/A time=00:11:36.69 bitrate=N/A speed=22.9x    frame=21131 fps=682 q=-0.0 size=N/A time=00:11:45.07 bitrate=N/A speed=22.8x    frame=21541 fps=684 q=-0.0 size=N/A time=00:11:58.75 bitrate=N/A speed=22.8x    frame=21922 fps=685 q=-0.0 size=N/A time=00:12:11.46 bitrate=N/A speed=22.9x    frame=22331 fps=687 q=-0.0 size=N/A time=00:12:25.11 bitrate=N/A speed=22.9x    frame=22861 fps=692 q=-0.0 size=N/A time=00:12:42.79 bitrate=N/A speed=23.1x    frame=23372 fps=697 q=-0.0 size=N/A time=00:12:59.84 bitrate=N/A speed=23.2x    frame=23927 fps=702 q=-0.0 size=N/A time=00:13:18.36 bitrate=N/A speed=23.4x    frame=24271 fps=702 q=-0.0 size=N/A time=00:13:29.84 bitrate=N/A speed=23.4x    frame=24678 fps=703 q=-0.0 size=N/A time=00:13:43.42 bitrate=N/A speed=23.5x    frame=25242 fps=709 q=-0.0 size=N/A time=00:14:02.24 bitrate=N/A speed=23.6x    frame=25670 fps=710 q=-0.0 size=N/A time=00:14:16.52 bitrate=N/A speed=23.7x    frame=26198 fps=715 q=-0.0 size=N/A time=00:14:34.13 bitrate=N/A speed=23.9x    frame=26805 fps=721 q=-0.0 size=N/A time=00:14:54.39 bitrate=N/A speed=24.1x    frame=27330 fps=725 q=-0.0 size=N/A time=00:15:11.91 bitrate=N/A speed=24.2x    frame=27812 fps=728 q=-0.0 size=N/A time=00:15:27.99 bitrate=N/A speed=24.3x    frame=28393 fps=734 q=-0.0 size=N/A time=00:15:47.37 bitrate=N/A speed=24.5x    frame=29021 fps=740 q=-0.0 size=N/A time=00:16:08.33 bitrate=N/A speed=24.7x    frame=29648 fps=746 q=-0.0 size=N/A time=00:16:29.25 bitrate=N/A speed=24.9x    frame=30270 fps=752 q=-0.0 size=N/A time=00:16:50.00 bitrate=N/A speed=25.1x    frame=30870 fps=757 q=-0.0 size=N/A time=00:17:10.02 bitrate=N/A speed=25.3x    frame=31419 fps=761 q=-0.0 size=N/A time=00:17:28.34 bitrate=N/A speed=25.4x    frame=32029 fps=766 q=-0.0 size=N/A time=00:17:48.70 bitrate=N/A speed=25.6x    frame=32576 fps=770 q=-0.0 size=N/A time=00:18:06.95 bitrate=N/A speed=25.7x    frame=33142 fps=774 q=-0.0 size=N/A time=00:18:25.83 bitrate=N/A speed=25.8x    frame=33664 fps=777 q=-0.0 size=N/A time=00:18:43.25 bitrate=N/A speed=25.9x    frame=34222 fps=780 q=-0.0 size=N/A time=00:19:01.87 bitrate=N/A speed=  26x    frame=34787 fps=784 q=-0.0 size=N/A time=00:19:20.72 bitrate=N/A speed=26.2x    frame=35264 fps=786 q=-0.0 size=N/A time=00:19:36.64 bitrate=N/A speed=26.2x    frame=35804 fps=789 q=-0.0 size=N/A time=00:19:54.66 bitrate=N/A speed=26.3x    frame=36316 fps=791 q=-0.0 size=N/A time=00:20:11.74 bitrate=N/A speed=26.4x    frame=36901 fps=795 q=-0.0 size=N/A time=00:20:31.26 bitrate=N/A speed=26.5x    frame=37401 fps=797 q=-0.0 size=N/A time=00:20:47.94 bitrate=N/A speed=26.6x    frame=37750 fps=795 q=-0.0 size=N/A time=00:20:59.59 bitrate=N/A speed=26.5x    frame=38094 fps=794 q=-0.0 size=N/A time=00:21:11.06 bitrate=N/A speed=26.5x    frame=38441 fps=793 q=-0.0 size=N/A time=00:21:22.64 bitrate=N/A speed=26.4x    frame=38836 fps=792 q=-0.0 size=N/A time=00:21:35.82 bitrate=N/A speed=26.4x    frame=39211 fps=792 q=-0.0 size=N/A time=00:21:48.34 bitrate=N/A speed=26.4x    frame=39591 fps=791 q=-0.0 size=N/A time=00:22:01.01 bitrate=N/A speed=26.4x    frame=39994 fps=791 q=-0.0 size=N/A time=00:22:14.46 bitrate=N/A speed=26.4x    frame=40254 fps=788 q=-0.0 size=N/A time=00:22:23.14 bitrate=N/A speed=26.3x    frame=40502 fps=785 q=-0.0 size=N/A time=00:22:31.41 bitrate=N/A speed=26.2x    frame=40840 fps=784 q=-0.0 size=N/A time=00:22:42.69 bitrate=N/A speed=26.1x    frame=41216 fps=783 q=-0.0 size=N/A time=00:22:55.24 bitrate=N/A speed=26.1x    frame=41596 fps=783 q=-0.0 size=N/A time=00:23:07.91 bitrate=N/A speed=26.1x    frame=41994 fps=783 q=-0.0 size=N/A time=00:23:21.19 bitrate=N/A speed=26.1x    frame=42278 fps=780 q=-0.0 size=N/A time=00:23:30.67 bitrate=N/A speed=  26x    frame=42564 fps=778 q=-0.0 size=N/A time=00:23:40.21 bitrate=N/A speed=  26x    frame=42866 fps=776 q=-0.0 size=N/A time=00:23:50.29 bitrate=N/A speed=25.9x    [Parsed_ssim_10 @ 00000136ca98e040] SSIM Y:0.985804 (18.478222) U:0.982278 (17.514956) V:0.984017 (17.963482) All:0.984918 (18.215508)
[out#0/null @ 00000136ca451ac0] video:18541KiB audio:269984KiB subtitle:0KiB other streams:0KiB global headers:0KiB muxing overhead: unknown
frame=43150 fps=778 q=-0.0 Lsize=N/A time=00:23:59.77 bitrate=N/A speed=  26x    
